/* XPM */
static char *_c29115abc034895e651f458af2a5eee[] = {
/* columns rows colors chars-per-pixel */
"80 80 63 1 ",
"  c #D68416",
". c #DA8616",
"X c #DB8917",
"o c #DA8718",
"O c #DF8B18",
"+ c #E18B17",
"@ c #EB8D15",
"# c #E38D19",
"$ c #E98E18",
"% c #F78F13",
"& c #EE9017",
"* c #E59019",
"= c #EB9119",
"- c #F79116",
"; c #F89617",
": c #F7931A",
"> c #F8941A",
", c #F6991B",
"< c #F8981A",
"1 c #F79622",
"2 c #F79826",
"3 c #F89927",
"4 c #F79929",
"5 c #F89A2B",
"6 c #F89E33",
"7 c #F8A037",
"8 c #F8A33D",
"9 c #F9A643",
"0 c #F9A846",
"q c #F9A74A",
"w c #F9A94A",
"e c #F9AD54",
"r c #F9B15C",
"t c #FAB564",
"y c #FAB669",
"u c #FAB96C",
"i c #FABC73",
"p c #FABF79",
"a c #FAC17D",
"s c #FBC484",
"d c #FBC78A",
"f c #FBC98D",
"g c #FBCC94",
"h c #FCCE99",
"j c #FCD19E",
"k c #FCD4A3",
"l c #FCD6AA",
"z c #FCD9AE",
"x c #FCDBB5",
"c c #FDDEBB",
"v c #FDE0BE",
"b c #FDE2C3",
"n c #FDE6CA",
"m c #FDE8CF",
"M c #FEEAD4",
"N c #FEEEDB",
"B c #FEF0DF",
"V c #FEF2E4",
"C c #FEF6EC",
"Z c #FEF8EF",
"A c #FFFAF4",
"S c #FFFFFF",
"D c None",
/* pixels */
"DDDDDDDDDDDDDDDDDDDDDDDDDDDDDDDDDDD>>>>::::::DDDDDDDDDDDDDDDDDDDDDDDDDDDDDDDDDDD",
"DDDDDDDDDDDDDDDDDDDDDDDDDDDDDD>:::>:>>::::::>>::1>DDDDDDDDDDDDDDDDDDDDDDDDDDDDDD",
"DDDDDDDDDDDDDDDDDDDDDDDDDDD>::>:::::::::::::::::::>>>DDDDDDDDDDDDDDDDDDDDDDDDDDD",
"DDDDDDDDDDDDDDDDDDDDDDDD::::::::::::::::::::::::::::>>>:DDDDDDDDDDDDDDDDDDDDDDDD",
"DDDDDDDDDDDDDDDDDDDDDD:::::>::::::::::::::::::::::::::::::DDDDDDDDDDDDDDDDDDDDDD",
"DDDDDDDDDDDDDDDDDDDD::::::::::::::::::::::::::::>:::::::::::DDDDDDDDDDDDDDDDDDDD",
"DDDDDDDDDDDDDDDDDDD:::::::::::::::::::::::::::::>>:::::::::::DDDDDDDDDDDDDDDDDDD",
"DDDDDDDDDDDDDDDDD:::::::::::::::::::::::::::::::>>:::::::::>:>:DDDDDDDDDDDDDDDDD",
"DDDDDDDDDDDDDDDD::::::::::::::::::::::::::::::::::::::::::::::::DDDDDDDDDDDDDDDD",
"DDDDDDDDDDDDDDD>::::::::::::::::::::::::::::::::::::>:::::>:::::>DDDDDDDDDDDDDDD",
"DDDDDDDDDDDDD,>::::::::::::::::::::::::::::::::::::::::::::::::::::DDDDDDDDDDDDD",
"DDDDDDDDDDDD;>:::::::::::::::::::::::::::::::::::>:::::::::::::::>-,DDDDDDDDDDDD",
"DDDDDDDDDDD,>:::::::::::::::::::::::::::::::::::::::::::::::>::::::>,DDDDDDDDDDD",
"DDDDDDDDDD,>:::::::::::::::::::::::::::::::::::::::::::::::>::::::::>:DDDDDDDDDD",
"DDDDDDDDDD>::::::::::::::::::::::::::::::::::::::::::>::::::::::::::::DDDDDDDDDD",
"DDDDDDDDD<::::::::::::::::::::::::::::::::::::::::::::::::::::::::::::>DDDDDDDDD",
"DDDDDDDD::::::::::::::::::::::::::::::::::::::::::::::::::::::::::::::>:DDDDDDDD",
"DDDDDDD::::::::::::::::::::::::::::::::::::::::::::::::::::::::::::::::><DDDDDDD",
"DDDDDDD>::::::::::::::::::::::::::::::::::::::::::::::::::::::::::::::::<DDDDDDD",
"DDDDDD->::::::::::::---::::::::::::::::::::::::::::::::::::::::::::::::::-DDDDDD",
"DDDDD@>>::::::41--::it4:%::::::::::::::::::::::::::::::::::::::::::::::::::DDDDD",
"DDDDD-:::::::1zngr77VCwff6::::::::::::::::::::::::::::::::::::::::::::::::>DDDDD",
"DDDD:>::::::-8VSSAVnSMeCZ9:::::::::::::::::::::::::::::::::::::::::::::::::-DDDD",
"DDDD::::::::-tSSSSSSSSVSM5-:::::::::::::::::::::::::::::::::::::::::::::::::DDDD",
"DDD@::::::::-jSSSSSSSSSSAx9-::::-:::::::::::::::::::::::::::::::::::::::::::=DDD",
"DDD-::::::::2mSSSVcVSSSSSSNe-:::q7:%-:::::::::::::::::::::::::::::::::::::::;DDD",
"DDD>:::::::-9ZSSSh:7tgnSSSSM7-:5MVcde6::::::::::::::::::::::::::::::::::::::>DDD",
"DD=>:::::::-pSSSSt%:%-4gSSSSf:-wASSSAn6:::::::::::::::::::::::::::::::::::::<=DD",
"DD-:::::>:::lSSSV7-::::1cSSSM2-dSSSSSA0-::::::::::::::::::::::::::::::::::::::DD",
"DD>::::::::5NSSSc::::::%dSSSC8>cSSSSSAe-::::::::::---::::::::::::::::::::::::>DD",
"D*>:::::::-eASSSd%:::::%sSSSZ87VSSSSSSr%:::::::-rcdr6:::::::::::::::::::::::::@D",
"D:>:::::::-sSSSAe%-:::::xSSSV5rSSSSSSSi-::::::-7NSSABxt:::::::::::::::::::::::&D",
"D::::::::::xSSSAly9:-%:iASSSc:hSSSBASSs%::::::1kSSSSSSg-:::::----::::::::::::::D",
"D-::::::::6VSSSSSSCnhdzZSSSSi:nSSSkVSSg%:::::-iASSSSSAr-::-:28ew81%-:::::::::::D",
"D>:::::::-tSSSSSSSSSSSSSSSSb28CSSAiBSSj%::::-9BSSSSSSN6::-6dmCAAVnd9::::::::::>D",
"D>:::::::-hSSSSNSSSSSSSSSSn8%iSSSV0MSSz::>::1xSSSSSSSx::-tMSSSSSSSSCf4::::::::>D",
"O>>>:::::1nSSSnwCZcASASZMd5::kSSSb2nSSb::::-pSSSNBSSSa:-yCSSSSSSSSSSSc6::::::::O",
"#>::::::-9CSSShrAnqZCur05%::5MSSSg-cSSn1::-qCSSCdCSSAw%qCSSSSMjhxVSSSSl::::::::#",
"O:::::::-iSSSSt3trrCc:%-:::-wASSSy%lSSN5-:4vSSSfsSSSM51cSSSSk5-%:8lSSSSt-:::::<X",
"O::::::::kSSSC8:-%190::::::%sSSSC0%hSSV6--dSSSb5cSSSk%tASSSv1-:::-1cSSSx::::::: ",
"O,::::::5MSSSb:::::--:::::::xSSSM3%sSSC8%eCSSC08CSSSu-xSSSAe-:::::%iSSSV6:::::>o",
"*>:::::-wCSSSf-:::::::::::-6BSSSz:%pSSAw4nSSSp%pSSSC88VSSSv1::::::-rSSSZ9-::::>#",
"X>>:::::5tgnVr-:::::::::::-rASSSa--tSSAegSSSx1:xSSSn:uSSSSa-:::::::eNASZ9-::::>O",
"D>>>:::::--181->::::::::::-fSSSAw--eASAzCSSN8%8VSSSg%kSSSZw-::::::::5edz6->:::>D",
"D:::::::::::-:::::::::::::1bSSSM5-:0ZSSSSSAy%-uSSSSr:nSSSM5::::::::::--:>::::::D",
"D::::::::::::::::::::::::-8CSSSk::-8CSSSSSk:::zSSSV66VSSSk->:::::::::::::::::::D",
"D::::::::::::::::::::::::-rVSSSu%::5NSSSSn6::5NSSSc:8CSSSs%>:::::::::::::::::::D",
"D=:::::::::::::::::::::::-19ujb8-::1MSSSCr-:%rSSSSd%0CSSSt-:::::::::::::::::>>@D",
"D+>:::::::::::::::::::::::>---1::::1nSSSd:::%dSSSAe-8CSSSt%>::::::--::::::::::OD",
"DD>:::::::::::::::::::::::::::::::::ycVc2:::1bSSSM5-1MSSSa%::::::691--::::::::DD",
"DD&>::::::::::::::::::::::::::::::::::76:::-8CSSSl>>-kSSSn4::::::lCnhr::::::::DD",
"DD=>::::::::::::::::::::::::::::::::::%::::-0nZSSp->:eZSSSk6:-%:iASSSv2>::::<$DD",
"DDD>:::::::::::::::::::::::::::::::::::::::::1qik8-:::kSSSSNkppzZSSSAt-:::::>DDD",
"DDD::::::::::::::::::::::::::::::::::::::::::::%::::::5xSSSSSSSSSSSSk>:::::::DDD",
"DDD*>:::::::::::::::::::::::::::::::::::::::>:::::::::-4hCSSSSSSSSAj4::::::>*DDD",
"DDDD:::::::::::::::::::::::::::::::::::::::::::::::::::::whMZSSACcy::::::::>DDDD",
"DDDD=:::::::::::::::::::::::::::::::::::::::::::::::::::::-59rtr81-::::::::=DDDD",
"DDDDD:::::::>::::::::>::::::::::::::::::::::::::::::::::::::----:::::::::::DDDDD",
"DDDDD=::::::::::::::::::::::::::::::::::>:::::::::::::::::::::::::::::::::=DDDDD",
"DDDDDD,>:::::::::::::::::::::::::::::::::::::::>:::::::::::::::::::::::::,DDDDDD",
"DDDDDD#>:::::::>:::::::::::::::::::::::::::::::::::::::::::::::::::::::::*DDDDDD",
"DDDDDDD=>>:::::::::>>:::::>:::::::::::::::::::::::::::::::::::::::::::::=DDDDDDD",
"DDDDDDDD:::::::::::::::::::::::::::::::::::::::::::::::::::::::::::::::,DDDDDDDD",
"DDDDDDDDD:::::::::::::::::::::::::::::::::::::::::::::::::::::::::::::,DDDDDDDDD",
"DDDDDDDDD*,:::::::::::::::::::::::::::1:::::::::::::::::::::::::::::::*DDDDDDDDD",
"DDDDDDDDDD=<::>:::::::::::::::::::::::::::::::::::::::::::::::::::::>=DDDDDDDDDD",
"DDDDDDDDDDD=>::::::::>:::::>>::::::::::::::::::::::::::::::::::1::::=DDDDDDDDDDD",
"DDDDDDDDDDDD=>::::::::::::::::::::>::>::::::::::::::::::::::::::::<&DDDDDDDDDDDD",
"DDDDDDDDDDDDD=:::>::::::::::::::::::::::::>:::::::::::::::::::::>,=DDDDDDDDDDDDD",
"DDDDDDDDDDDDDD*::::::::::::::::::::::::::::::::::::::::::::::::::*DDDDDDDDDDDDDD",
"DDDDDDDDDDDDDDDD,>::>:::::>::::::::::::::>::::::::::::::::::::>:DDDDDDDDDDDDDDDD",
"DDDDDDDDDDDDDDDDD=::::::::::::::::::::::::::::::::::::::::::::=DDDDDDDDDDDDDDDDD",
"DDDDDDDDDDDDDDDDDDO,::::::::::::::::::::::::::::::::::::::::,ODDDDDDDDDDDDDDDDDD",
"DDDDDDDDDDDDDDDDDDDD=::::::::::::::::::::::::::::::::::::::=DDDDDDDDDDDDDDDDDDDD",
"DDDDDDDDDDDDDDDDDDDDDD=:>:::::::::::::::::::::::::::::>>:=DDDDDDDDDDDDDDDDDDDDDD",
"DDDDDDDDDDDDDDDDDDDDDDDD#::::::::::::::::::::::::::::::#DDDDDDDDDDDDDDDDDDDDDDDD",
"DDDDDDDDDDDDDDDDDDDDDDDDDDo=::::::::::::::::>:::::>:=oDDDDDDDDDDDDDDDDDDDDDDDDDD",
"DDDDDDDDDDDDDDDDDDDDDDDDDDDDD #=::::>>>>::>>>>:,&$ DDDDDDDDDDDDDDDDDDDDDDDDDDDDD",
"DDDDDDDDDDDDDDDDDDDDDDDDDDDDDDDDDD O#$$$##$#o DDDDDDDDDDDDDDDDDDDDDDDDDDDDDDDDDD",
"DDDDDDDDDDDDDDDDDDDDDDDDDDDDDDDDDDDDDDDDDDDDDDDDDDDDDDDDDDDDDDDDDDDDDDDDDDDDDDDD"
};
