/* XPM */
static char *b6df7268a7514670bc3155ec2d59ca5f[] = {
/* columns rows colors chars-per-pixel */
"32 32 188 2 ",
"   c #E88C18",
".  c #E88C19",
"X  c #EB8E19",
"o  c #EB8F19",
"O  c #EE9019",
"+  c #EF9219",
"@  c #F79014",
"#  c #F79115",
"$  c #F79116",
"%  c #F79117",
"&  c #F79217",
"*  c #F09119",
"=  c #F19119",
"-  c #F19219",
";  c #F29219",
":  c #F39219",
">  c #F1911A",
",  c #F0921A",
"<  c #F2921A",
"1  c #F3921A",
"2  c #F3931A",
"3  c #F59219",
"4  c #F59319",
"5  c #F79218",
"6  c #F69219",
"7  c #F79219",
"8  c #F69319",
"9  c #F79319",
"0  c #F4921A",
"q  c #F5921A",
"w  c #F4931A",
"e  c #F5931A",
"r  c #F6931A",
"t  c #F7931A",
"y  c #F7931B",
"u  c #F69419",
"i  c #F6941A",
"p  c #F7941A",
"a  c #F7951A",
"s  c #F7941D",
"d  c #F7951D",
"f  c #F7951E",
"g  c #F79620",
"h  c #F79621",
"j  c #F79723",
"k  c #F79724",
"l  c #F79824",
"z  c #F79825",
"x  c #F79826",
"c  c #F79927",
"v  c #F89A2A",
"b  c #F89B2B",
"n  c #F89C2D",
"m  c #F89C2E",
"M  c #F89D2F",
"N  c #F89D30",
"B  c #F89E31",
"V  c #F89E33",
"C  c #F89F33",
"Z  c #F8A035",
"A  c #F8A23A",
"S  c #F8A33C",
"D  c #F8A43E",
"F  c #F8A642",
"G  c #F8A643",
"H  c #F9A644",
"J  c #F9A745",
"K  c #F9A847",
"L  c #F9A949",
"P  c #F9A94A",
"I  c #F9AB4D",
"U  c #F9AC50",
"Y  c #F9AE54",
"T  c #F9AF56",
"R  c #F9B057",
"E  c #F9B058",
"W  c #F9B059",
"Q  c #F9B15A",
"!  c #F9B25C",
"~  c #FAB461",
"^  c #FAB462",
"/  c #FAB562",
"(  c #FAB665",
")  c #FAB666",
"_  c #FAB766",
"`  c #FAB768",
"'  c #FAB86A",
"]  c #FAB96B",
"[  c #FABA6F",
"{  c #FABB70",
"}  c #FABC71",
"|  c #FABC72",
" . c #FABC73",
".. c #FABE76",
"X. c #FABF77",
"o. c #FABF78",
"O. c #FAC079",
"+. c #FAC07B",
"@. c #FAC17C",
"#. c #FBC27E",
"$. c #FBC27F",
"%. c #FBC381",
"&. c #FBC482",
"*. c #FBC585",
"=. c #FBC586",
"-. c #FBC687",
";. c #FBC789",
":. c #FBC78A",
">. c #FBC88A",
",. c #FBC88C",
"<. c #FBC98D",
"1. c #FBCA90",
"2. c #FBCC93",
"3. c #FBCC94",
"4. c #FBCD95",
"5. c #FBCE97",
"6. c #FBCE98",
"7. c #FCD09C",
"8. c #FCD19E",
"9. c #FCD19F",
"0. c #FCD29F",
"q. c #FCD2A0",
"w. c #FCD3A2",
"e. c #FCD3A3",
"r. c #FCD5A6",
"t. c #FCD5A7",
"y. c #FCD6A8",
"u. c #FCD7AA",
"i. c #FCD9AF",
"p. c #FCD9B0",
"a. c #FCDAB2",
"s. c #FCDBB3",
"d. c #FCDBB4",
"f. c #FDDEBA",
"g. c #FDE0BD",
"h. c #FDE0C0",
"j. c #FDE1C0",
"k. c #FDE1C1",
"l. c #FDE2C1",
"z. c #FDE3C4",
"x. c #FDE3C5",
"c. c #FDE4C6",
"v. c #FDE5C9",
"b. c #FDE6CA",
"n. c #FDE7CC",
"m. c #FDE7CD",
"M. c #FDE7CE",
"N. c #FDE8CE",
"B. c #FEEBD4",
"V. c #FEEBD5",
"C. c #FEEBD6",
"Z. c #FEECD6",
"A. c #FEECD8",
"S. c #FEEDD9",
"D. c #FEEEDB",
"F. c #FEEFDD",
"G. c #FEEFDE",
"H. c #FEEFDF",
"J. c #FEF0E0",
"K. c #FEF0E1",
"L. c #FEF1E1",
"P. c #FEF2E5",
"I. c #FEF3E6",
"U. c #FEF3E7",
"Y. c #FEF4E7",
"T. c #FEF4E8",
"R. c #FEF4E9",
"E. c #FEF6EB",
"W. c #FEF6EC",
"Q. c #FEF6ED",
"!. c #FEF7ED",
"~. c #FEF7EE",
"^. c #FEF7EF",
"/. c #FEF8EF",
"(. c #FEF8F0",
"). c #FFF9F2",
"_. c #FFFAF4",
"`. c #FFFAF5",
"'. c #FFFBF6",
"]. c #FFFBF7",
"[. c #FFFCF8",
"{. c #FFFCF9",
"}. c #FFFDFB",
"|. c #FFFDFC",
" X c #FFFEFD",
".X c #FFFFFE",
"XX c gray100",
"oX c None",
/* pixels */
"oXoXoXoXoXoXoXoXoXoXoXoXt t t t t t t t oXoXoXoXoXoXoXoXoXoXoXoX",
"oXoXoXoXoXoXoXoXoXoXt t t t t t t t t t t t oXoXoXoXoXoXoXoXoXoX",
"oXoXoXoXoXoXoXoXt t t t t t t t t t t t t t t t oXoXoXoXoXoXoXoX",
"oXoXoXoXoXoXt t t t t t t t t t t t t t t t t t t a oXoXoXoXoXoX",
"oXoXoXoXoXa t t t t t t t t t t t t t t t t t t t t a oXoXoXoXoX",
"oXoXoXoXa t t t t t t t t t t t t t t t t t t t t t t t oXoXoXoX",
"oXoXoXt t t t t t t t t t t t t t t t t t t t t t t t t a oXoXoX",
"oXoXoXt t t @ t s t t t t t t t t t t t t t t t t t t t t oXoXoX",
"oXoXt t @ P $.~ ,.~ c a t t t t t t t t t t t t t t t t t t oXoX",
"oXoXt t t 5.XX[.'.L.U t a @ @ a t t t t t t t t t t t t t t oXoX",
"oXt t t l b.^.$.9.I.J.J D 5.' l t t t t t t t t t t t t t t t oX",
"oXt a @ F (.l.f @ ' XX5.O.XX[.Q @ t t h f @ t t t t t t t t t oX",
"- t t @ | XX9.h @ _ XXw.i.XXXX' @ t l e.f.| f t t @ @ t t t t - ",
"- t t t r.XX^.c.y.L.].o.D.G.T.$.@ a o.XXXXa.t A o.&.W h t t 7 - ",
"t t t n C.T.M.T.^.b.| ! [.r.G.,.@ K I.^.XX..T G.'.^.'.a.N t 7 t ",
"- t @ U [.d.P [ T h @ >.XX| M.7.x l.C.h.^.~ C.^._ A -.[.2.t t - ",
"- t t ` ^.O.@ t t t h f.^.K l.i.;.^.| C.M.%.XX6.t @ b D.b.h t - ",
"- t t h F n t t t t D ^.M.x p.U.^.2.! [.9.u.[.W @ t s U ` h t - ",
"* t t t t t t t t @ I G.2.@ w.XXc.c 5.XX| c.I.Z t t t @ @ t t - ",
"oXt t t t t t t t t f N n t ..C.I h M.^.G c.L.M @ a M x f t t oX",
"oXt t t t t t t t t t t t t h n t N f.a.h ,.[.-.C T B.r.h t t oX",
"oX- t t t t t t t t t t t t t t t s x n t M a.'.I.(./.| t t - oX",
"oXoXt t t t t t t t t t t t t t t t t t t t x W :.:.I t t t oXoX",
"oXoX- t t t t t t t t t t t t t t t t t t t @ t # # t t t - oXoX",
"oXoXoXt t t t t t t t t t t t t t t t t t t t t 7 7 t t t oXoXoX",
"oXoXoXoXt t t t t t t t t t t t t t t t t t t t y y t t oXoXoXoX",
"oXoXoXoX+ t t t t t t t t t t t t t t t t t t t y t t - oXoXoXoX",
"oXoXoXoXoX+ t t t t t t t t t t t t t t t t t t y a + oXoXoXoXoX",
"oXoXoXoXoXoXoXs t t t t t t t t t t t t t t t t t oXoXoXoXoXoXoX",
"oXoXoXoXoXoXoXoXO t t t t t t t t t t t t t t O oXoXoXoXoXoXoXoX",
"oXoXoXoXoXoXoXoXoXoXX - - t t t t t t - - X oXoXoXoXoXoXoXoXoXoX",
"oXoXoXoXoXoXoXoXoXoXoXoXoXoX. . . X oXoXoXoXoXoXoXoXoXoXoXoXoXoX"
};
